<svg xmlns="http://www.w3.org/2000/svg" viewBox="0 0 400 500" width="400" height="500">
<rect width="400" height="500" fill="#FFFAF3"/>
<circle cx="340" cy="60" r="22" fill="#D97706" opacity="0.08"/>
<path d="M200 420 C200 420 180 380 175 340 C170 300 165 260 170 230 C175 200 180 180 190 160 C195 150 200 140 200 130 C200 115 195 105 200 95 C205 85 215 80 220 82 C225 84 228 80 235 78 C242 76 250 80 248 88 C246 96 240 100 238 105 C236 110 240 118 245 125 C250 132 255 145 255 160 C255 175 250 195 248 220 C246 245 248 270 250 300 C252 330 255 360 260 380 C265 400 275 410 285 415 C295 420 300 422 295 425 C290 428 270 425 260 422 C250 419 245 415 240 410 C235 405 225 400 215 405 C205 410 200 420 200 420 Z" fill="#1A1511" opacity="0.75"/>
</svg>
