<svg xmlns="http://www.w3.org/2000/svg" viewBox="0 0 400 500" width="400" height="500">
<rect width="400" height="500" fill="#FFFAF3"/>
<circle cx="340" cy="60" r="20" fill="#D97706" opacity="0.07"/>
<g transform="translate(-3,-2)"><path d="M200 420 C200 420 220 380 225 340 C230 300 235 260 230 230 C225 200 220 180 210 160 C205 150 200 140 200 130 C200 115 205 105 200 95 C195 85 185 80 180 82 C175 84 172 80 165 78 C158 76 150 80 152 88 C154 96 160 100 162 105 C164 110 160 118 155 125 C150 132 145 145 145 160 C145 175 150 195 152 220 C154 245 152 270 150 300 C148 330 145 360 140 380 C135 400 125 410 115 415 C105 420 100 422 105 425 C110 428 130 425 140 422 C150 419 155 415 160 410 C165 405 175 400 185 405 C195 410 200 420 200 420 Z" fill="#D97706" opacity="0.3"/></g>
<g transform="translate(3,2)"><path d="M200 420 C200 420 220 380 225 340 C230 300 235 260 230 230 C225 200 220 180 210 160 C205 150 200 140 200 130 C200 115 205 105 200 95 C195 85 185 80 180 82 C175 84 172 80 165 78 C158 76 150 80 152 88 C154 96 160 100 162 105 C164 110 160 118 155 125 C150 132 145 145 145 160 C145 175 150 195 152 220 C154 245 152 270 150 300 C148 330 145 360 140 380 C135 400 125 410 115 415 C105 420 100 422 105 425 C110 428 130 425 140 422 C150 419 155 415 160 410 C165 405 175 400 185 405 C195 410 200 420 200 420 Z" fill="#C2410C" opacity="0.25"/></g>
<path d="M200 420 C200 420 220 380 225 340 C230 300 235 260 230 230 C225 200 220 180 210 160 C205 150 200 140 200 130 C200 115 205 105 200 95 C195 85 185 80 180 82 C175 84 172 80 165 78 C158 76 150 80 152 88 C154 96 160 100 162 105 C164 110 160 118 155 125 C150 132 145 145 145 160 C145 175 150 195 152 220 C154 245 152 270 150 300 C148 330 145 360 140 380 C135 400 125 410 115 415 C105 420 100 422 105 425 C110 428 130 425 140 422 C150 419 155 415 160 410 C165 405 175 400 185 405 C195 410 200 420 200 420 Z" fill="#1A1511" opacity="0.35"/>
</svg>
