<svg xmlns="http://www.w3.org/2000/svg" viewBox="0 0 400 500" width="400" height="500">
<rect width="400" height="500" fill="#F5EFE3"/>
<circle cx="350" cy="440" r="22" fill="#2A3420" opacity="0.05"/>
<g transform="translate(-3,-2)"><path d="M120 350 C120 340 130 300 150 280 C160 270 170 265 175 255 C178 248 175 235 178 225 C181 215 190 210 195 212 C200 214 202 210 208 208 C214 206 220 210 218 218 C216 226 210 232 212 240 C214 248 220 258 230 265 C250 278 280 285 300 290 C320 295 340 298 340 310 C340 322 330 340 310 348 C290 356 250 360 200 360 C150 360 120 360 120 350 Z" fill="#D97706" opacity="0.3"/></g>
<g transform="translate(3,2)"><path d="M120 350 C120 340 130 300 150 280 C160 270 170 265 175 255 C178 248 175 235 178 225 C181 215 190 210 195 212 C200 214 202 210 208 208 C214 206 220 210 218 218 C216 226 210 232 212 240 C214 248 220 258 230 265 C250 278 280 285 300 290 C320 295 340 298 340 310 C340 322 330 340 310 348 C290 356 250 360 200 360 C150 360 120 360 120 350 Z" fill="#C2410C" opacity="0.25"/></g>
<path d="M120 350 C120 340 130 300 150 280 C160 270 170 265 175 255 C178 248 175 235 178 225 C181 215 190 210 195 212 C200 214 202 210 208 208 C214 206 220 210 218 218 C216 226 210 232 212 240 C214 248 220 258 230 265 C250 278 280 285 300 290 C320 295 340 298 340 310 C340 322 330 340 310 348 C290 356 250 360 200 360 C150 360 120 360 120 350 Z" fill="#1A1511" opacity="0.35"/>
</svg>
