<svg xmlns="http://www.w3.org/2000/svg" viewBox="0 0 400 500" width="400" height="500">
<rect width="400" height="500" fill="#F5EFE3"/>
<circle cx="330" cy="80" r="18" fill="#C2410C" opacity="0.07"/>
<path d="M160 400 C160 395 155 380 155 360 C155 340 158 320 162 305 C166 290 170 278 175 268 C178 262 180 258 182 252 C184 246 182 235 185 225 C188 215 195 210 200 208 C205 206 210 210 212 215 C214 220 212 228 215 238 C218 248 225 255 230 265 C235 275 238 290 240 305 C242 320 244 340 245 360 C246 380 248 395 250 400 C252 405 258 408 265 405 C272 402 278 395 280 385 C282 375 280 360 275 350 C270 340 268 330 270 325 C272 320 278 318 280 322 C282 326 280 335 282 345 C284 355 288 365 290 375 C292 385 290 395 285 405 C280 415 268 420 258 422 C248 424 245 420 240 415 C235 410 228 408 218 408 C208 408 198 410 188 412 C178 414 168 416 162 415 C156 414 160 405 160 400 Z" fill="#7A6028" opacity="0.7"/>
</svg>
