<svg xmlns="http://www.w3.org/2000/svg" viewBox="0 0 400 500" width="400" height="500">
<defs><linearGradient id="bg" x1="0" y1="0" x2="1" y2="1">
<stop offset="0%" stop-color="#F5EFE3"/><stop offset="100%" stop-color="#FFFAF3"/>
</linearGradient></defs><rect width="400" height="500" fill="url(#bg)"/>
<line x1="30" y1="470" x2="370" y2="470" stroke="#2A3420" stroke-width="0.5" opacity="0.1"/>
<path d="M140 410 C140 400 135 370 140 340 C145 310 155 290 160 270 C165 250 168 230 175 215 C180 205 185 200 190 195 C192 192 195 188 200 185 C205 182 212 185 215 190 C218 195 220 202 222 210 C224 218 228 230 235 250 C242 270 248 290 252 310 C256 330 258 350 260 370 C262 390 268 400 278 408 C288 416 298 418 295 422 C292 426 275 424 265 420 C255 416 248 410 240 405 C232 400 220 398 210 400 C200 402 190 408 180 412 C170 416 158 420 148 420 C138 420 140 418 140 410 Z" fill="#9B7B2A" opacity="0.7"/>
</svg>
