<svg xmlns="http://www.w3.org/2000/svg" viewBox="0 0 400 500" width="400" height="500">
<defs><linearGradient id="bg" x1="0" y1="0" x2="1" y2="1">
<stop offset="0%" stop-color="#F5EFE3"/><stop offset="100%" stop-color="#FFFAF3"/>
</linearGradient></defs><rect width="400" height="500" fill="url(#bg)"/>
<circle cx="60" cy="440" r="30" fill="#C2410C" opacity="0.06"/>
<path d="M200 420 C200 420 185 385 180 350 C175 315 172 285 175 258 C178 231 182 210 188 195 C191 187 195 178 198 168 C199 163 198 155 195 145 C192 135 188 125 190 118 C192 111 198 108 202 110 C206 112 208 108 212 105 C216 102 222 105 222 112 C222 119 218 128 215 138 C212 148 212 158 215 168 C218 178 222 188 225 198 C228 210 230 230 232 258 C234 286 234 315 230 350 C226 385 215 420 200 420 Z M200 420 C200 420 188 418 180 415 C172 412 165 408 160 405 C155 402 158 400 162 402 C166 404 175 410 200 420 Z M200 420 C200 420 212 418 220 415 C228 412 235 408 240 405 C245 402 242 400 238 402 C234 404 225 410 200 420 Z" fill="#706020" opacity="0.6"/>
</svg>
