<svg xmlns="http://www.w3.org/2000/svg" viewBox="0 0 400 500" width="400" height="500">
<defs><linearGradient id="bg" x1="0" y1="0" x2="0" y2="1">
<stop offset="0%" stop-color="#FFFAF3"/><stop offset="100%" stop-color="#F5EFE3"/>
</linearGradient></defs><rect width="400" height="500" fill="url(#bg)"/>
<circle cx="340" cy="60" r="25" fill="#D97706" opacity="0.08"/>
<path d="M170 370 C160 360 150 340 148 315 C146 290 155 268 168 252 C175 243 180 238 185 230 C188 225 185 215 190 208 C195 201 205 198 210 200 C215 202 218 198 224 196 C230 194 236 198 234 206 C232 214 225 220 225 228 C225 236 230 245 240 258 C255 275 268 295 272 318 C276 341 270 360 258 372 C246 384 228 388 210 386 C192 384 180 380 170 370 Z" fill="#856525" opacity="0.55"/>
</svg>
